<?xml version="1.0" encoding="utf-8"?>
<svg xmlns="http://www.w3.org/2000/svg" viewBox="0 0 96 114" width="96"
    height="114" preserveAspectRatio="xMidYMid meet"
    style="width: 100%; height: 100%; transform: translate3d(0px, 0px, 0px);">
    <defs>
        <clipPath id="__lottie_element_211">
            <rect width="96" height="114" x="0" y="0"></rect>
        </clipPath>
    </defs>
    <g clip-path="url(#__lottie_element_211)">
        <g transform="matrix(1,0,0,0.9399500489234924,0,6.4197235107421875)" opacity="1"
            style="display: block;">
            <g opacity="1" transform="matrix(1,0,0,1,48.388999938964844,86.24800109863281)">
                <path stroke-linecap="butt" stroke-linejoin="miter" fill-opacity="0"
                    stroke-miterlimit="10" stroke="rgb(129,148,139)" stroke-opacity="1"
                    stroke-width="3"
                    d=" M27.260000228881836,-23.70400047302246 C27.260000228881836,-23.70400047302246 27.260000228881836,16.000999450683594 27.260000228881836,16.000999450683594 C27.260000228881836,20.2549991607666 23.81100082397461,23.70400047302246 19.55699920654297,23.70400047302246 C19.55699920654297,23.70400047302246 -19.55500030517578,23.70400047302246 -19.55500030517578,23.70400047302246 C-23.809999465942383,23.70400047302246 -27.260000228881836,20.2549991607666 -27.260000228881836,16.000999450683594 C-27.260000228881836,16.000999450683594 -27.260000228881836,-23.70400047302246 -27.260000228881836,-23.70400047302246 C-27.260000228881836,-23.70400047302246 27.260000228881836,-23.70400047302246 27.260000228881836,-23.70400047302246z">
                </path>
            </g>
            <g opacity="1" transform="matrix(1,0,0,1,0,0)">
                <path stroke-linecap="butt" stroke-linejoin="miter" fill-opacity="0"
                    stroke-miterlimit="10" stroke="rgb(129,148,139)" stroke-opacity="1"
                    stroke-width="3"
                    d=" M41.20399856567383,109.95099639892578 C41.20399856567383,109.95099639892578 41.20399856567383,62.395999908447266 41.20399856567383,62.395999908447266">
                </path>
            </g>
            <g opacity="1" transform="matrix(1,0,0,1,0,0)">
                <path stroke-linecap="butt" stroke-linejoin="miter" fill-opacity="0"
                    stroke-miterlimit="10" stroke="rgb(129,148,139)" stroke-opacity="1"
                    stroke-width="3"
                    d=" M54.5369987487793,62.61800003051758 C54.5369987487793,62.61800003051758 54.5369987487793,109.95099639892578 54.5369987487793,109.95099639892578">
                </path>
            </g>
        </g>
        <g transform="matrix(1,0,0,0.9399500489234924,0,6.4197235107421875)" opacity="1"
            style="display: block;">
            <g opacity="1" transform="matrix(1,0,0,1,0,0)">
                <path stroke-linecap="butt" stroke-linejoin="miter" fill-opacity="0"
                    stroke-miterlimit="10" stroke="rgb(129,148,139)" stroke-opacity="1"
                    stroke-width="3"
                    d=" M54.5369987487793,62.395999908447266 C54.5369987487793,62.395999908447266 54.5369987487793,44.84000015258789 54.5369987487793,44.84000015258789">
                </path>
            </g>
            <g opacity="1" transform="matrix(1,0,0,1,47.5,53.50699996948242)">
                <path stroke-linecap="butt" stroke-linejoin="miter" fill-opacity="0"
                    stroke-miterlimit="10" stroke="rgb(129,148,139)" stroke-opacity="1"
                    stroke-width="3"
                    d=" M30.309999465942383,9.036999702453613 C30.309999465942383,9.036999702453613 -30.30900001525879,9.036999702453613 -30.30900001525879,9.036999702453613 C-33.534000396728516,9.036999702453613 -36.14799880981445,6.421999931335449 -36.14799880981445,3.197000026702881 C-36.14799880981445,3.197000026702881 -36.14799880981445,-3.197999954223633 -36.14799880981445,-3.197999954223633 C-36.14799880981445,-6.422999858856201 -33.534000396728516,-9.036999702453613 -30.30900001525879,-9.036999702453613 C-30.30900001525879,-9.036999702453613 30.309999465942383,-9.036999702453613 30.309999465942383,-9.036999702453613 C33.53499984741211,-9.036999702453613 36.14799880981445,-6.422999858856201 36.14799880981445,-3.197999954223633 C36.14799880981445,-3.197999954223633 36.14799880981445,3.197000026702881 36.14799880981445,3.197000026702881 C36.14799880981445,6.421999931335449 33.53499984741211,9.036999702453613 30.309999465942383,9.036999702453613z">
                </path>
            </g>
            <g opacity="1" transform="matrix(1,0,0,1,0,0)">
                <path stroke-linecap="butt" stroke-linejoin="miter" fill-opacity="0"
                    stroke-miterlimit="10" stroke="rgb(129,148,139)" stroke-opacity="1"
                    stroke-width="3"
                    d=" M41.20399856567383,62.395999908447266 C41.20399856567383,62.395999908447266 41.20399856567383,44.84000015258789 41.20399856567383,44.84000015258789">
                </path>
            </g>
        </g>
        <g transform="matrix(1,0,0,0.9399500489234924,0,6.4197235107421875)" opacity="1"
            style="display: block;">
            <g opacity="1" transform="matrix(1,0,0,1,47.64699935913086,33.92300033569336)">
                <path stroke-linecap="round" stroke-linejoin="miter" fill-opacity="0"
                    stroke-miterlimit="10" stroke="rgb(129,148,139)" stroke-opacity="1"
                    stroke-width="3"
                    d=" M-0.6869999766349792,8.565999984741211 C-2.431999921798706,2.1489999294281006 -7.488999843597412,-10.281000137329102 -20.489999771118164,-10.281000137329102 C-25.785999298095703,-10.281000137329102 -29.073999404907227,-8.190999984741211 -29.073999404907227,-4.820000171661377 C-29.073999404907227,1.3029999732971191 -19.075000762939453,9.696999549865723 -0.25999999046325684,10.281000137329102 C-0.25999999046325684,10.281000137329102 0.25999999046325684,10.281000137329102 0.25999999046325684,10.281000137329102 C19.075000762939453,9.696999549865723 29.073999404907227,1.3029999732971191 29.073999404907227,-4.820000171661377 C29.073999404907227,-8.190999984741211 25.785999298095703,-10.281000137329102 20.489999771118164,-10.281000137329102 C7.63700008392334,-10.281000137329102 2.546999931335449,1.8669999837875366 0.746999979019165,8.343999862670898">
                </path>
            </g>
        </g>
    </g>
</svg>